<svg width="436" height="320" viewBox="0 0 436 320" fill="none" xmlns="http://www.w3.org/2000/svg">
<path d="M376.825 254.468H72.7345C72.59 254.468 72.4514 254.412 72.3492 254.312C72.2471 254.213 72.1897 254.078 72.1897 253.937C72.1897 253.796 72.2471 253.661 72.3492 253.562C72.4514 253.462 72.59 253.406 72.7345 253.406H376.825C376.969 253.406 377.108 253.462 377.21 253.562C377.312 253.661 377.369 253.796 377.369 253.937C377.369 254.078 377.312 254.213 377.21 254.312C377.108 254.412 376.969 254.468 376.825 254.468Z" fill="#CC9AFF"/>
<path d="M137.264 156.519C180.473 156.519 215.501 130.415 215.501 98.2137C215.501 66.0129 180.473 39.9089 137.264 39.9089C94.0546 39.9089 59.0266 66.0129 59.0266 98.2137C59.0266 130.415 94.0546 156.519 137.264 156.519Z" fill="white"/>
<path d="M137.297 157.049C93.8629 157.049 58.5254 130.662 58.5254 98.2137C58.5254 65.7655 93.8302 39.3888 137.297 39.3888C180.763 39.3888 216.079 65.7761 216.079 98.2137C216.079 130.651 180.708 157.049 137.297 157.049ZM137.297 40.4502C94.4622 40.4502 59.615 66.3599 59.615 98.2137C59.615 130.067 94.484 155.988 137.297 155.988C180.109 155.988 214.989 130.078 214.989 98.2137C214.989 66.3493 180.109 40.4502 137.297 40.4502Z" fill="#CC9AFF"/>
<path d="M224.207 73.1319C223.84 73.1426 223.474 73.1924 223.118 73.2805C219.032 74.3419 217.887 79.7977 222.475 81.2625C223.108 81.4298 223.771 81.4649 224.42 81.3656C225.068 81.2662 225.688 81.0347 226.238 80.686C226.788 80.3373 227.257 79.8794 227.613 79.3422C227.969 78.8051 228.205 78.2007 228.305 77.5687C228.378 77.0068 228.327 76.436 228.154 75.8952C227.98 75.3545 227.689 74.8565 227.3 74.4353C226.911 74.0142 226.434 73.6797 225.9 73.4548C225.366 73.2298 224.789 73.1197 224.207 73.1319Z" fill="white"/>
<path d="M223.684 81.9844C223.211 81.9838 222.741 81.9122 222.29 81.7721C221.312 81.5311 220.448 80.973 219.84 80.1896C219.232 79.4062 218.916 78.4444 218.944 77.4626C219.008 76.3624 219.434 75.3114 220.158 74.4647C220.882 73.618 221.866 73.0205 222.965 72.7605C223.371 72.6589 223.789 72.6089 224.207 72.6119C224.863 72.5991 225.515 72.7242 226.116 72.9786C226.718 73.2331 227.257 73.6109 227.695 74.0863C228.134 74.5618 228.462 75.1237 228.657 75.7338C228.853 76.3439 228.911 76.9879 228.828 77.6218C228.737 78.3386 228.483 79.0265 228.083 79.6347C227.683 80.2428 227.148 80.7556 226.518 81.1352C225.677 81.6785 224.693 81.9733 223.684 81.9844ZM224.207 73.6733C223.88 73.6702 223.554 73.7095 223.238 73.79C222.366 73.9911 221.585 74.4597 221.008 75.1268C220.431 75.7938 220.089 76.6239 220.034 77.4945C220.016 78.2464 220.264 78.9817 220.736 79.5769C221.208 80.172 221.876 80.5911 222.627 80.7637C223.183 80.9055 223.764 80.9324 224.331 80.8426C224.898 80.7529 225.44 80.5485 225.921 80.2425C226.403 79.9366 226.813 79.536 227.126 79.0664C227.439 78.5967 227.647 78.0685 227.738 77.5157C227.804 77.031 227.762 76.5382 227.614 76.0709C227.467 75.6036 227.217 75.1728 226.883 74.808C226.549 74.4432 226.138 74.1529 225.678 73.9571C225.218 73.7613 224.72 73.6645 224.218 73.6733H224.207Z" fill="#CC9AFF"/>
<path d="M319.4 181.855L341.923 176.293C341.073 174.722 327.387 134.717 314.834 126.936C304.057 118.211 282.417 117.383 257.91 116.428C250.066 115.981 242.199 116.729 234.592 118.646C206.01 126.342 185.928 165.827 185.928 165.827L214.085 171.251C214.085 171.251 209.606 212.032 205.683 261.749C205.683 261.749 250.555 271.589 320.664 267.757C320.664 267.757 318.735 188.924 319.4 181.855Z" fill="#CC9AFF"/>
<path d="M250.86 130.301L227.564 266.579L274.909 269.912L285.174 122.499L250.86 130.301Z" fill="#231F20"/>
<path d="M274.909 270.443L227.575 267.11C227.499 267.104 227.425 267.082 227.357 267.048C227.29 267.013 227.23 266.966 227.182 266.908C227.092 266.789 227.053 266.641 227.073 266.494L250.37 130.216C250.385 130.114 250.432 130.018 250.504 129.943C250.576 129.867 250.67 129.814 250.773 129.791L285.097 121.979C285.179 121.959 285.265 121.959 285.347 121.979C285.429 121.999 285.504 122.04 285.566 122.096C285.632 122.148 285.684 122.215 285.718 122.291C285.752 122.366 285.767 122.449 285.762 122.531L275.498 269.944C275.493 270.013 275.474 270.08 275.442 270.142C275.41 270.204 275.366 270.26 275.312 270.305C275.258 270.352 275.194 270.389 275.125 270.413C275.056 270.437 274.982 270.447 274.909 270.443ZM228.206 266.144L274.408 269.402L284.585 123.221L251.329 130.789L228.206 266.144Z" fill="#231F20"/>
<path d="M253.977 110.388L249.618 128.189C249.618 128.189 253.356 140.194 265.745 139.27C269.41 138.967 272.959 137.872 276.135 136.066C279.311 134.259 282.034 131.786 284.106 128.826L289.434 96.0271C289.434 96.0271 281.36 90.03 287.081 71.7414C276.644 74.2787 265.699 74.0331 255.393 71.0303C255.393 71.0303 246.6 90.4546 246.534 99.6891C246.469 108.924 253.977 110.388 253.977 110.388Z" fill="white"/>
<path d="M264.448 139.833C252.844 139.833 249.193 128.443 249.117 128.316C249.095 128.225 249.095 128.131 249.117 128.04L253.345 110.728C251.547 110.165 245.968 107.724 246.022 99.6573C246.088 90.4228 254.565 71.5928 254.936 70.7968C254.987 70.6789 255.08 70.5834 255.199 70.5286C255.318 70.4738 255.453 70.4635 255.579 70.4996C265.789 73.4484 276.621 73.6939 286.961 71.2107C287.056 71.1855 287.156 71.1849 287.252 71.2091C287.347 71.2333 287.435 71.2815 287.505 71.3487C287.576 71.4167 287.625 71.5023 287.648 71.596C287.671 71.6897 287.667 71.7879 287.636 71.8794C284.749 81.1246 285.457 87.0898 286.634 90.4652C287.208 92.4327 288.319 94.2117 289.848 95.6132C289.925 95.6708 289.985 95.7475 290.021 95.8352C290.058 95.9229 290.07 96.0185 290.055 96.1121L284.716 128.91C284.709 128.98 284.683 129.046 284.64 129.102C282.513 132.137 279.721 134.675 276.464 136.531C273.208 138.387 269.569 139.514 265.81 139.833C265.342 139.833 264.884 139.833 264.448 139.833ZM250.207 128.157C250.664 129.505 254.467 139.557 265.734 138.771C269.29 138.463 272.734 137.398 275.821 135.652C278.909 133.906 281.566 131.521 283.605 128.666L288.878 96.2713C287.505 95.0612 281.556 88.6608 286.307 72.5269C276.204 74.7412 265.692 74.4566 255.731 71.699C254.445 74.5967 247.156 91.4523 247.101 99.7209C247.036 108.372 253.802 109.836 254.086 109.9C254.159 109.91 254.228 109.936 254.289 109.976C254.349 110.017 254.399 110.071 254.434 110.134C254.476 110.192 254.504 110.258 254.517 110.327C254.53 110.397 254.528 110.468 254.511 110.537L250.207 128.157Z" fill="#231F20"/>
<path d="M282.569 94.3501C283.229 92.8258 284.375 91.5491 285.838 90.7094C287.254 90.0013 288.783 89.5346 290.36 89.3295C291.214 89.1387 292.1 89.1387 292.954 89.3295C293.538 89.5134 294.079 89.8094 294.545 90.1999C295.733 91.0164 296.58 92.222 296.931 93.5965C297.079 94.7228 296.941 95.8675 296.528 96.9294C296.183 98.1214 295.678 99.2636 295.024 100.326C294.346 101.369 293.461 102.27 292.422 102.978C291.383 103.685 290.209 104.184 288.97 104.446C287.731 104.707 286.451 104.727 285.205 104.502C283.958 104.278 282.77 103.814 281.709 103.139" fill="white"/>
<path d="M287.004 105.134C285.036 105.137 283.11 104.584 281.458 103.542C281.338 103.464 281.255 103.344 281.227 103.207C281.198 103.069 281.227 102.927 281.305 102.81C281.343 102.75 281.393 102.699 281.451 102.658C281.51 102.618 281.576 102.589 281.647 102.574C281.717 102.559 281.789 102.559 281.86 102.572C281.93 102.585 281.998 102.612 282.057 102.651C283.058 103.287 284.178 103.723 285.354 103.934C286.529 104.146 287.735 104.127 288.903 103.88C290.071 103.633 291.177 103.163 292.157 102.496C293.136 101.83 293.97 100.98 294.61 99.9969C295.238 98.9775 295.725 97.8819 296.059 96.7383C296.437 95.753 296.568 94.694 296.441 93.6495C296.107 92.4062 295.336 91.3166 294.261 90.5714C293.849 90.2268 293.371 89.9637 292.856 89.7965C292.084 89.6279 291.284 89.6279 290.513 89.7965C288.993 89.9945 287.519 90.4432 286.154 91.1233C284.773 91.8922 283.69 93.0819 283.071 94.5093C283.013 94.6388 282.905 94.7406 282.77 94.7924C282.635 94.8441 282.484 94.8416 282.351 94.7853C282.219 94.729 282.114 94.6235 282.061 94.4921C282.008 94.3608 282.01 94.2142 282.068 94.0847C282.788 92.4487 284.035 91.0852 285.62 90.1999C287.087 89.4553 288.677 88.9667 290.317 88.7563C291.248 88.5386 292.219 88.5386 293.15 88.7563C293.802 88.9591 294.406 89.2876 294.926 89.7222C296.211 90.6225 297.117 91.9463 297.476 93.4479C297.642 94.6622 297.5 95.8977 297.062 97.0461C296.716 98.28 296.199 99.462 295.525 100.559C294.806 101.661 293.871 102.613 292.773 103.361C291.676 104.11 290.437 104.64 289.129 104.922C288.431 105.067 287.718 105.138 287.004 105.134Z" fill="#231F20"/>
<path d="M252.255 119.294C254.416 119.886 256.681 120.019 258.899 119.686C261.117 119.353 263.236 118.56 265.113 117.362C271.193 113.265 271.215 110.325 271.215 110.325C271.215 110.325 261.986 113.509 254.424 110.739L252.255 119.294Z" fill="#231F20"/>
<path d="M256.614 120.408C255.081 120.421 253.554 120.217 252.081 119.803C251.951 119.762 251.843 119.674 251.776 119.558C251.709 119.442 251.69 119.306 251.721 119.177L253.901 110.611C253.946 110.467 254.048 110.345 254.184 110.272C254.253 110.243 254.327 110.228 254.402 110.228C254.477 110.228 254.551 110.243 254.62 110.272C261.91 112.936 270.965 109.879 271.041 109.847C271.124 109.82 271.214 109.812 271.301 109.825C271.388 109.838 271.471 109.871 271.542 109.921C271.614 109.969 271.672 110.034 271.71 110.111C271.749 110.187 271.766 110.272 271.76 110.357C271.76 110.484 271.662 113.605 265.429 117.787C262.838 119.525 259.759 120.441 256.614 120.408ZM252.909 118.922C254.924 119.398 257.017 119.466 259.06 119.123C261.103 118.78 263.052 118.032 264.786 116.927C268.665 114.316 269.984 112.203 270.431 111.121C267.924 111.832 260.972 113.445 254.794 111.439L252.909 118.922Z" fill="#231F20"/>
<path d="M267.107 84.6379C267.107 84.6379 259.055 92.4607 260.21 94.3183C261.365 96.1758 265.658 95.9316 265.658 95.9316" fill="white"/>
<path d="M265.146 96.4199C263.827 96.4199 260.787 96.2288 259.698 94.5411C258.423 92.4819 264.721 86.1133 266.682 84.2027C266.785 84.1028 266.924 84.0466 267.069 84.0466C267.214 84.0466 267.353 84.1028 267.456 84.2027C267.558 84.3026 267.616 84.4382 267.616 84.5795C267.616 84.7209 267.558 84.8564 267.456 84.9563C263.25 89.0429 260.123 93.1719 260.635 93.9892C261.441 95.2841 264.514 95.4115 265.625 95.3478C265.697 95.3435 265.769 95.353 265.836 95.3758C265.904 95.3985 265.967 95.4341 266.02 95.4804C266.074 95.5268 266.118 95.583 266.149 95.6458C266.18 95.7087 266.199 95.7769 266.203 95.8467C266.209 95.9167 266.2 95.9872 266.177 96.0539C266.154 96.1205 266.118 96.182 266.07 96.2346C266.022 96.2872 265.964 96.3297 265.899 96.3598C265.833 96.3898 265.763 96.4066 265.691 96.4092L265.146 96.4199Z" fill="#231F20"/>
<path d="M276.254 85.559C276.39 84.3822 275.801 83.3521 274.94 83.2581C274.079 83.1642 273.271 84.042 273.136 85.2188C273 86.3956 273.589 87.4258 274.45 87.5197C275.311 87.6137 276.119 86.7358 276.254 85.559Z" fill="#231F20"/>
<path d="M261.627 83.2802C262.113 82.1945 261.862 81.0412 261.067 80.7042C260.273 80.3672 259.235 80.9741 258.75 82.0598C258.265 83.1455 258.515 84.2988 259.31 84.6358C260.104 84.9729 261.142 84.3659 261.627 83.2802Z" fill="#231F20"/>
<path d="M273.187 105.548C273.046 105.547 272.91 105.494 272.806 105.4C267.968 100.878 254.892 98.097 254.761 98.0651C254.692 98.0513 254.625 98.024 254.566 97.9848C254.508 97.9457 254.457 97.8954 254.419 97.837C254.38 97.7787 254.354 97.7134 254.342 97.645C254.329 97.5766 254.331 97.5065 254.347 97.4389C254.362 97.3706 254.39 97.3057 254.43 97.2479C254.47 97.1901 254.521 97.1406 254.581 97.1021C254.64 97.0637 254.707 97.0371 254.778 97.0238C254.848 97.0106 254.92 97.0109 254.99 97.0249C255.535 97.1417 268.491 99.9014 273.514 104.635C273.592 104.708 273.646 104.802 273.669 104.905C273.692 105.008 273.683 105.115 273.643 105.213C273.603 105.311 273.535 105.395 273.446 105.454C273.357 105.514 273.252 105.547 273.144 105.548H273.187Z" fill="#231F20"/>
<path d="M340.844 219.663C340.726 219.664 340.611 219.627 340.517 219.557L324.445 207.542C324.331 207.454 324.256 207.326 324.236 207.186C324.215 207.046 324.251 206.903 324.336 206.788C324.426 206.679 324.555 206.609 324.698 206.591C324.84 206.573 324.983 206.61 325.099 206.693L341.182 218.719C341.27 218.787 341.334 218.881 341.365 218.986C341.396 219.092 341.392 219.204 341.355 219.307C341.318 219.411 341.249 219.501 341.158 219.564C341.066 219.628 340.957 219.663 340.844 219.663Z" fill="#231F20"/>
<path d="M296.571 87.6843H296.43C296.291 87.647 296.174 87.5581 296.102 87.4369C296.031 87.3157 296.012 87.1719 296.048 87.0368C297.672 81.1564 299.252 75.1699 300.745 69.2259L300.908 68.5996C301.66 66.1007 302.077 63.5178 302.15 60.9148C302.085 59.0467 301.213 58.7919 298.467 58.7919C298.395 58.7943 298.323 58.7824 298.256 58.7569C298.188 58.7313 298.127 58.6927 298.075 58.6433C297.973 58.5447 297.915 58.4116 297.912 58.2718C297.889 56.9636 297.559 55.6779 296.947 54.5132C296.335 53.3485 295.457 52.3358 294.381 51.5529C290.742 48.9524 285.413 48.3686 279.747 50.0988L279.464 50.1837C273.819 51.8607 268.949 53.3043 262.781 53.5272C261.594 53.5272 260.362 53.5272 259.174 53.5272C256.493 53.4119 253.807 53.5863 251.166 54.0473C249.517 54.4454 247.897 54.9489 246.317 55.5545C244.96 55.9506 243.687 56.5797 242.557 57.4121C241.431 58.4789 240.557 59.772 239.997 61.2014C239.359 62.4506 238.901 63.7792 238.634 65.1499C238.002 69.3957 240.814 73.1213 242.59 75.0001C243.68 76.1677 245.336 77.4732 246.949 77.0487C247.02 77.0298 247.095 77.0249 247.168 77.0342C247.242 77.0435 247.313 77.0668 247.377 77.1028C247.441 77.1388 247.497 77.1867 247.543 77.2439C247.588 77.3011 247.621 77.3664 247.64 77.4361C247.66 77.5058 247.665 77.5785 247.655 77.6501C247.646 77.7217 247.622 77.7907 247.585 77.8533C247.548 77.9159 247.499 77.9708 247.44 78.0149C247.381 78.0589 247.314 78.0913 247.243 78.1101C245.543 78.5665 243.658 77.7492 241.794 75.7537C239.931 73.7582 236.869 69.6717 237.578 65.0332C237.853 63.5585 238.341 62.1292 239.027 60.7874C239.668 59.2122 240.649 57.7896 241.903 56.616C243.131 55.7046 244.515 55.0112 245.99 54.5674C247.614 53.9417 249.282 53.4274 250.98 53.0283C253.703 52.5427 256.474 52.3576 259.24 52.4764C260.417 52.4764 261.626 52.4764 262.803 52.4764C268.818 52.2535 273.634 50.8312 279.202 49.1753L279.486 49.0904C285.479 47.3178 291.156 47.9122 295.079 50.7038C296.214 51.5346 297.155 52.5923 297.837 53.806C298.519 55.0197 298.927 56.3613 299.034 57.7411C300.995 57.7411 303.197 57.9534 303.295 60.9254C303.227 63.6252 302.799 66.305 302.02 68.8968L301.856 69.5231C300.363 75.4671 298.773 81.4642 297.149 87.3552C297.104 87.4648 297.023 87.5567 296.918 87.6163C296.814 87.6759 296.692 87.6998 296.571 87.6843Z" fill="#231F20"/>
<path d="M278.636 131.883C278.636 131.883 272.479 126.13 270.845 119.092C269.21 112.055 269.842 110.537 268.72 110.293C267.598 110.049 265.702 110.792 264.296 113.191C262.89 115.589 263.272 124.028 265.56 127.424C267.848 130.821 278.636 131.883 278.636 131.883Z" fill="white"/>
<path d="M278.636 132.403H278.581C278.134 132.35 267.51 131.267 265.102 127.7C262.694 124.134 262.28 115.526 263.827 112.915C265.375 110.304 267.423 109.465 268.829 109.73C269.842 109.943 269.918 110.792 270.213 112.586C270.398 113.902 270.67 115.897 271.379 118.954C272.959 125.747 278.952 131.426 279.006 131.479C279.084 131.558 279.137 131.657 279.159 131.764C279.18 131.872 279.169 131.983 279.126 132.084C279.083 132.177 279.014 132.256 278.928 132.312C278.841 132.368 278.74 132.4 278.636 132.403ZM268.306 110.781C267.423 110.781 265.941 111.439 264.764 113.435C263.588 115.43 263.784 123.816 266.017 127.117C267.521 129.356 273.645 130.651 277.186 131.161C275.312 129.144 271.564 124.569 270.322 119.198C269.602 116.12 269.319 114.093 269.134 112.755C268.916 111.216 268.84 110.855 268.6 110.802C268.503 110.788 268.404 110.784 268.306 110.792V110.781Z" fill="#231F20"/>
<path d="M187.639 166.57C187.639 166.57 160.266 232.178 170.531 252.133C180.796 272.088 281.752 281.004 281.752 281.004C281.752 281.004 294.588 286.311 298.576 287.118C302.565 287.925 317.689 288.784 317.689 288.784C317.689 288.784 311.979 289.846 313.973 291.555C315.967 293.264 327.049 293.221 328.237 289.336C329.425 285.451 326.243 269.891 322.789 267.386C319.334 264.881 280.575 255.71 277.731 255.445C274.887 255.179 211.001 233.59 211.001 233.59L219.271 172.663" fill="white"/>
<path d="M319.432 293.168C316.894 293.168 314.551 292.754 313.625 291.979C313.396 291.828 313.218 291.614 313.116 291.365C313.013 291.115 312.989 290.841 313.047 290.578C313.205 290.245 313.432 289.946 313.713 289.702C313.994 289.457 314.324 289.271 314.682 289.156C310.051 288.869 301.399 288.264 298.467 287.648C294.588 286.842 282.798 282.023 281.621 281.545C276.413 281.078 180.283 272.289 170.041 252.366C165.682 243.949 167.295 226.892 174.715 201.704C180.164 183.001 187.072 166.538 187.137 166.369C187.192 166.238 187.298 166.133 187.432 166.079C187.566 166.024 187.717 166.023 187.851 166.077C187.986 166.13 188.093 166.233 188.149 166.364C188.205 166.494 188.206 166.641 188.151 166.772C187.878 167.43 160.986 232.337 171.021 251.899C181.057 271.462 280.793 280.409 281.807 280.494C281.857 280.484 281.909 280.484 281.959 280.494C282.09 280.547 294.795 285.802 298.696 286.576C302.597 287.351 317.569 288.222 317.722 288.232C317.853 288.24 317.978 288.293 318.072 288.383C318.166 288.473 318.223 288.593 318.234 288.721C318.24 288.849 318.2 288.976 318.12 289.078C318.04 289.181 317.927 289.254 317.798 289.283C316.153 289.602 314.235 290.345 314.104 290.812C314.104 290.886 314.202 291.024 314.333 291.13C315.422 292.043 320.653 292.552 324.554 291.417C325.796 291.045 327.365 290.355 327.714 289.166C328.869 285.239 325.534 270.06 322.494 267.789C319.454 265.518 281.164 256.283 277.71 255.954C274.822 255.667 213.42 234.948 210.848 234.067C210.731 234.029 210.63 233.952 210.565 233.849C210.499 233.746 210.472 233.624 210.489 233.505L218.759 172.567C218.768 172.498 218.792 172.43 218.828 172.37C218.864 172.309 218.912 172.255 218.969 172.212C219.026 172.169 219.091 172.138 219.161 172.12C219.231 172.101 219.303 172.097 219.375 172.106C219.446 172.115 219.515 172.137 219.578 172.172C219.64 172.208 219.695 172.254 219.739 172.31C219.783 172.366 219.816 172.429 219.834 172.497C219.853 172.565 219.858 172.636 219.849 172.705L211.633 233.207C233.829 240.701 275.639 254.68 277.829 254.893C280.02 255.105 319.422 264.212 323.159 266.94C326.897 269.668 329.937 285.483 328.771 289.464C328.389 290.769 327.038 291.799 324.881 292.436C323.109 292.926 321.275 293.172 319.432 293.168Z" fill="#231F20"/>
<path d="M303.425 185.74C303.425 185.74 285.043 139.886 279.878 132.339C274.713 124.792 252.048 106.366 249.226 108.202C246.404 110.038 247.232 112.087 248.409 113.509C249.586 114.931 256.156 119.336 256.156 119.336C256.156 119.336 248.757 116.025 248.529 120.398C248.3 124.771 253.977 127.382 253.977 127.382C253.977 127.382 247.755 122.913 247.515 127.722C247.484 129.124 247.882 130.503 248.658 131.685C249.434 132.866 250.554 133.796 251.874 134.356C251.874 134.356 245.249 128.879 245.881 134.589C246.97 143.972 266.323 155.181 266.323 155.181L274.539 233.165C274.539 233.165 277.481 278.393 307.108 277.024C345.126 275.262 356.143 221.829 337.139 176.643" fill="white"/>
<path d="M305.735 277.512C277.143 277.512 273.961 233.568 273.928 233.122L265.745 155.425C263.413 154.045 246.306 143.643 245.281 134.568C245.107 133.018 245.434 132.021 246.251 131.596C246.748 131.365 247.314 131.32 247.842 131.469C247.156 130.303 246.834 128.967 246.916 127.626C246.877 127.125 246.984 126.622 247.225 126.177C247.466 125.732 247.831 125.363 248.278 125.111C248.761 124.907 249.294 124.841 249.814 124.919C248.599 123.678 247.937 122.018 247.973 120.302C247.97 119.849 248.084 119.402 248.305 119.003C248.526 118.605 248.846 118.266 249.237 118.02C250.405 117.499 251.725 117.398 252.963 117.734C251.202 116.551 249.538 115.238 247.984 113.806C247.53 113.396 247.187 112.884 246.983 112.315C246.778 111.745 246.72 111.136 246.812 110.54C246.905 109.944 247.145 109.379 247.512 108.894C247.88 108.408 248.363 108.018 248.921 107.756C250.991 106.408 259.273 112.554 264.013 116.343C270.126 121.215 277.535 127.966 280.357 132.042C285.49 139.557 303.24 183.67 303.959 185.549C304.009 185.68 304.004 185.825 303.944 185.952C303.885 186.079 303.777 186.178 303.643 186.228C303.578 186.255 303.507 186.269 303.436 186.269C303.365 186.269 303.294 186.254 303.229 186.226C303.163 186.198 303.105 186.158 303.056 186.107C303.007 186.056 302.97 185.996 302.946 185.931C302.761 185.475 284.52 140.056 279.442 132.636C277.078 129.176 270.616 122.956 263.348 117.16C254.554 110.144 250.272 108.202 249.553 108.669C249.144 108.881 248.785 109.175 248.502 109.531C248.218 109.888 248.015 110.3 247.907 110.739C247.889 111.181 247.962 111.623 248.123 112.037C248.284 112.451 248.529 112.829 248.845 113.148C249.771 114.21 254.674 117.649 256.472 118.88C256.583 118.957 256.66 119.072 256.688 119.201C256.716 119.331 256.694 119.466 256.625 119.58C256.56 119.697 256.451 119.786 256.322 119.827C256.192 119.869 256.051 119.86 255.927 119.803C254.729 119.262 251.296 118.073 249.803 118.954C249.565 119.109 249.371 119.321 249.241 119.571C249.112 119.82 249.05 120.097 249.062 120.377C248.932 122.839 250.915 124.728 252.451 125.822C253.077 126.131 253.678 126.485 254.249 126.883C254.353 126.963 254.422 127.077 254.446 127.204C254.469 127.33 254.445 127.461 254.377 127.571C254.309 127.682 254.202 127.764 254.077 127.803C253.951 127.843 253.815 127.836 253.694 127.785C253.052 127.48 252.436 127.125 251.852 126.724C250.762 126.161 249.466 125.779 248.746 126.108C248.3 126.31 248.049 126.851 248.006 127.711C247.954 128.547 248.083 129.385 248.386 130.17C248.688 130.954 249.156 131.668 249.76 132.265C250.608 132.747 251.414 133.297 252.168 133.91C252.266 133.992 252.331 134.106 252.351 134.23C252.371 134.354 252.345 134.482 252.277 134.589C252.209 134.697 252.103 134.778 251.98 134.817C251.856 134.856 251.721 134.851 251.601 134.801C250.703 134.404 249.883 133.854 249.182 133.177C248.191 132.636 247.254 132.307 246.763 132.562C246.273 132.817 246.24 133.443 246.36 134.483C247.374 143.495 266.344 154.565 266.53 154.65C266.604 154.692 266.667 154.751 266.715 154.821C266.762 154.891 266.792 154.971 266.802 155.054L275.018 233.038C275.018 233.505 278.222 277.777 307.01 276.419C318.942 275.867 328.858 270.05 335.712 259.563C348.701 239.703 349.049 206.427 336.573 176.771C336.521 176.641 336.523 176.497 336.578 176.368C336.633 176.24 336.736 176.137 336.867 176.081C337.002 176.03 337.151 176.032 337.285 176.085C337.419 176.138 337.526 176.239 337.586 176.367C350.183 206.332 349.801 239.99 336.627 260.136C329.588 270.91 319.356 276.907 307.065 277.48L305.735 277.512Z" fill="#231F20"/>
<path d="M302.477 183.978C302.477 183.978 317.308 223.251 321.11 236.201L302.477 183.978Z" fill="white"/>
<path d="M321.11 236.731C320.992 236.733 320.877 236.696 320.782 236.627C320.687 236.558 320.619 236.46 320.587 236.349C316.828 223.559 302.118 184.551 301.965 184.158C301.939 184.092 301.926 184.022 301.927 183.951C301.929 183.88 301.946 183.81 301.976 183.745C302.006 183.681 302.049 183.622 302.102 183.574C302.156 183.526 302.218 183.489 302.287 183.465C302.355 183.44 302.428 183.43 302.501 183.434C302.574 183.437 302.645 183.455 302.71 183.486C302.776 183.517 302.834 183.561 302.882 183.614C302.93 183.668 302.967 183.73 302.99 183.797C303.131 184.19 317.863 223.23 321.634 236.063C321.671 236.198 321.653 236.342 321.584 236.464C321.515 236.587 321.4 236.679 321.263 236.721L321.11 236.731Z" fill="#231F20"/>
<path d="M221.679 146.201C221.679 147.316 219.391 168.056 219.391 168.056L221.679 146.201Z" fill="#231F20"/>
<path d="M219.391 168.576H219.337C219.194 168.56 219.063 168.49 218.974 168.381C218.884 168.271 218.842 168.132 218.857 167.993C219.489 162.24 221.135 147.093 221.135 146.201C221.135 146.06 221.192 145.926 221.294 145.826C221.396 145.726 221.535 145.671 221.679 145.671C221.824 145.671 221.963 145.726 222.065 145.826C222.167 145.926 222.224 146.06 222.224 146.201C222.224 147.326 220.045 167.26 219.947 168.109C219.931 168.241 219.865 168.361 219.762 168.448C219.659 168.534 219.527 168.58 219.391 168.576Z" fill="#231F20"/>
<path d="M123.654 106.864C123.022 98.9354 126.226 93.7238 135.259 87.4188C143.399 81.8357 145.72 78.9273 145.371 74.5011C144.946 69.1939 140.021 66.275 132.676 66.8269C123.6 67.5169 118.456 73.652 118.598 83.8099L98.7337 83.8736C97.8619 64.4599 110.862 50.7886 131.423 49.2389C149.708 47.859 163.906 57.6349 165.072 72.3252C165.791 81.2943 161.803 88.0026 151.593 95.1779C143.344 101.164 141.524 103.521 141.884 108.074L142.244 112.628L124.221 114.018L123.654 106.864ZM123.654 123.083L144.924 121.47L146.526 141.637L125.201 143.229L123.654 123.083Z" fill="black"/>
<path d="M235.202 86.1982C238.329 86.8138 238.667 81.6022 235.366 82.186C234.877 82.2496 234.428 82.4789 234.096 82.8336C233.764 83.1884 233.572 83.6457 233.552 84.1252C233.533 84.6046 233.687 85.0754 233.989 85.4546C234.291 85.8338 234.721 86.0971 235.202 86.1982Z" fill="white"/>
<path d="M235.703 86.7607C235.498 86.76 235.294 86.7386 235.093 86.6971C234.498 86.6049 233.957 86.3057 233.57 85.855C233.183 85.4042 232.977 84.8324 232.99 84.2451C232.994 83.6198 233.225 83.0159 233.642 82.5401C234.058 82.0643 234.634 81.7472 235.267 81.6446C235.74 81.5267 236.237 81.5531 236.693 81.7202C237.15 81.8873 237.542 82.187 237.817 82.5787C238.122 83.0602 238.277 83.6179 238.261 84.1835C238.246 84.7491 238.061 85.298 237.73 85.763C237.505 86.0809 237.201 86.3388 236.847 86.5131C236.493 86.6873 236.1 86.7725 235.703 86.7607ZM235.366 85.6993C235.646 85.7788 235.945 85.7692 236.219 85.6718C236.494 85.5745 236.729 85.3945 236.891 85.158C237.085 84.8675 237.193 84.5311 237.205 84.185C237.216 83.8389 237.13 83.4964 236.956 83.1943C236.796 82.9805 236.572 82.8207 236.314 82.737C236.056 82.6533 235.778 82.6499 235.518 82.7273C235.136 82.7914 234.789 82.9834 234.536 83.2701C234.283 83.5569 234.141 83.9204 234.134 84.2982C234.123 84.6392 234.244 84.9718 234.471 85.231C234.699 85.4901 235.018 85.6572 235.366 85.6993Z" fill="#CC9AFF"/>
<path d="M128.492 221.563C128.631 219.771 128.189 217.982 127.228 216.447C126.286 215.409 125.398 214.325 124.569 213.199C123.48 211.076 124.232 208.667 123.97 206.385C123.708 204.418 122.72 202.611 121.191 201.301C119.808 200.09 118.031 199.263 116.702 197.999C114.523 195.94 113.913 193.032 112.681 190.453C110.81 186.689 107.757 183.603 103.964 181.643C106.329 185.75 100.946 190.973 103.386 195.049C104.16 196.333 105.631 197.278 106.198 198.647C107.571 201.948 103.016 205.525 104.465 208.805C105.195 210.439 107.233 211.384 108.17 212.934C109.445 215.057 108.442 217.562 108.551 219.929C108.693 223.187 110.992 226.096 113.716 228.357C115.416 229.758 117.301 230.978 119.165 232.241C121.344 233.759 122.292 235.362 124.221 232.921C126.852 229.676 128.349 225.696 128.492 221.563Z" fill="#CC9AFF"/>
<path d="M133.396 223.103C132.687 220.576 132.186 217.848 133.396 215.471C134.747 212.775 138.092 210.875 138.484 207.966C138.746 206.056 137.623 204.124 138.059 202.245C138.495 200.367 140.239 199.061 141.753 197.692C145.068 194.619 147.098 190.46 147.452 186.016C149.692 188.291 151.532 190.908 152.9 193.764C153.55 195.166 153.817 196.707 153.678 198.239C153.539 199.771 152.997 201.242 152.105 202.511C151.552 203.089 151.089 203.743 150.732 204.453C150.067 206.311 151.909 208.041 152.911 209.76C153.474 210.754 153.711 211.891 153.593 213.019C153.474 214.148 153.004 215.214 152.247 216.076C150.318 218.199 146.602 218.963 145.709 221.489C145.47 222.43 145.357 223.397 145.371 224.366C145.089 226.121 144.267 227.753 143.014 229.045C141.762 230.337 140.137 231.229 138.354 231.605C136.065 232.072 136.174 231.297 135.706 229.641C135.008 227.476 134.028 225.321 133.396 223.103Z" fill="#CC9AFF"/>
<path d="M126.139 204.973C124.515 200.133 123.861 195.07 122.161 190.251C120.693 186.462 118.919 182.792 116.855 179.276L123.807 181.802C125.986 182.619 128.449 183.575 129.506 185.453C131.336 188.733 128.045 192.936 129.963 196.174C130.803 197.235 131.724 198.232 132.72 199.156C134.769 201.64 134.453 205.058 133.33 207.945C132.851 209.187 130.737 215.619 128.852 213.836C128.1 213.114 128.034 210.45 127.762 209.474C127.239 207.966 126.64 206.48 126.139 204.973Z" fill="#CC9AFF"/>
<path d="M125.136 249.766C123.916 241.009 122.859 233.409 122.848 233.282L121.758 233.42C121.758 233.547 122.848 241.062 124.025 249.766H125.136Z" fill="#CC9AFF"/>
<path d="M134.529 249.766C136.022 238.451 137.569 230.055 138.441 229.121L137.634 228.41C136.425 229.705 134.79 239.523 133.439 249.766H134.529Z" fill="#CC9AFF"/>
<path d="M133.199 249.766C132.012 229.312 129.931 209.017 129.931 208.752L128.841 208.858C128.841 209.123 131.02 229.365 132.11 249.766H133.199Z" fill="#CC9AFF"/>
<path d="M114.327 237.612H145.142L142.963 260.178C142.592 264.085 138.103 267.12 132.698 267.12H126.738C121.29 267.12 116.844 264.085 116.462 260.178L114.327 237.612Z" fill="#CC9AFF"/>
</svg>
