<svg width="140" height="39" viewBox="0 0 140 39" fill="none" xmlns="http://www.w3.org/2000/svg">
<path d="M3.19009 11.7417C3.19009 8.57063 5.74063 6 8.8869 6H12.146C12.146 6 10.4262 7.3 9.46671 8.49167C8.93712 9.14935 8.99209 16.2419 9.1477 22.4661C9.27772 27.6657 5.16067 32 0 32L3.19009 30.5917V11.7417Z" fill="#CC9AFF"/>
<path d="M1.25532 13.4015C1.25532 9.31375 4.54319 6 8.59895 6L7.53194 7.3V24.4088C7.53194 28.6013 4.15977 32 0 32L1.25532 30.5917V13.4015Z" fill="#8C3FDB"/>
<path d="M13.5088 11.7417C13.5088 8.57063 16.0594 6 19.2056 6H22.4647C22.4647 6 20.745 7.3 19.7854 8.49167C19.2558 9.14935 19.3108 16.2419 19.4664 22.4661C19.5964 27.6657 15.4794 32 10.3187 32L13.5088 30.5917V11.7417Z" fill="#CC9AFF"/>
<path d="M11.5741 13.4015C11.5741 9.31375 14.8619 6 18.9177 6L17.8507 7.3V24.4088C17.8507 28.6013 14.4785 32 10.3187 32L11.5741 30.5917V13.4015Z" fill="#8C3FDB"/>
<path d="M23.8275 11.7417C23.8275 8.57063 26.378 6 29.5245 6H32.7834C32.7834 6 31.0638 7.3 30.1041 8.49167C29.5745 9.14935 29.6295 16.2419 29.7853 22.4661C29.915 27.6657 25.7981 32 20.6375 32L23.8275 30.5917V11.7417Z" fill="#CC9AFF"/>
<path d="M21.8928 13.4015C21.8928 9.31375 25.1806 6 29.2363 6L28.1694 7.3V24.4088C28.1694 28.6013 24.7972 32 20.6375 32L21.8928 30.5917V13.4015Z" fill="#8C3FDB"/>
<path d="M59.58 10.852V29H55.94V17.196L51.078 29H48.322L43.434 17.196V29H39.794V10.852H43.928L49.7 24.346L55.472 10.852H59.58ZM62.2428 21.746C62.2428 20.29 62.5288 18.9987 63.1008 17.872C63.6901 16.7453 64.4788 15.8787 65.4668 15.272C66.4721 14.6653 67.5901 14.362 68.8208 14.362C69.8954 14.362 70.8314 14.5787 71.6288 15.012C72.4434 15.4453 73.0934 15.9913 73.5788 16.65V14.596H77.2448V29H73.5788V26.894C73.1108 27.57 72.4608 28.1333 71.6288 28.584C70.8141 29.0173 69.8694 29.234 68.7948 29.234C67.5814 29.234 66.4721 28.922 65.4668 28.298C64.4788 27.674 63.6901 26.7987 63.1008 25.672C62.5288 24.528 62.2428 23.2193 62.2428 21.746ZM73.5788 21.798C73.5788 20.914 73.4054 20.16 73.0588 19.536C72.7121 18.8947 72.2441 18.4093 71.6548 18.08C71.0654 17.7333 70.4328 17.56 69.7568 17.56C69.0808 17.56 68.4568 17.7247 67.8848 18.054C67.3128 18.3833 66.8448 18.8687 66.4808 19.51C66.1341 20.134 65.9608 20.8793 65.9608 21.746C65.9608 22.6127 66.1341 23.3753 66.4808 24.034C66.8448 24.6753 67.3128 25.1693 67.8848 25.516C68.4741 25.8627 69.0981 26.036 69.7568 26.036C70.4328 26.036 71.0654 25.8713 71.6548 25.542C72.2441 25.1953 72.7121 24.71 73.0588 24.086C73.4054 23.4447 73.5788 22.682 73.5788 21.798ZM84.4399 16.832C84.9079 16.0693 85.5145 15.4713 86.2599 15.038C87.0225 14.6047 87.8892 14.388 88.8599 14.388V18.21H87.8979C86.7539 18.21 85.8872 18.4787 85.2979 19.016C84.7259 19.5533 84.4399 20.4893 84.4399 21.824V29H80.7999V14.596H84.4399V16.832ZM90.3756 21.798C90.3756 20.3073 90.6789 19.0073 91.2856 17.898C91.8922 16.7713 92.7329 15.9047 93.8076 15.298C94.8822 14.674 96.1129 14.362 97.4996 14.362C99.2849 14.362 100.758 14.8127 101.92 15.714C103.098 16.598 103.887 17.846 104.286 19.458H100.36C100.152 18.834 99.7962 18.3487 99.2936 18.002C98.8082 17.638 98.2016 17.456 97.4736 17.456C96.4336 17.456 95.6102 17.8373 95.0036 18.6C94.3969 19.3453 94.0936 20.4113 94.0936 21.798C94.0936 23.1673 94.3969 24.2333 95.0036 24.996C95.6102 25.7413 96.4336 26.114 97.4736 26.114C98.9469 26.114 99.9089 25.4553 100.36 24.138H104.286C103.887 25.698 103.098 26.9373 101.92 27.856C100.741 28.7747 99.2676 29.234 97.4996 29.234C96.1129 29.234 94.8822 28.9307 93.8076 28.324C92.7329 27.7 91.8922 26.8333 91.2856 25.724C90.6789 24.5973 90.3756 23.2887 90.3756 21.798ZM115.064 14.388C116.156 14.388 117.127 14.6307 117.976 15.116C118.826 15.584 119.484 16.286 119.952 17.222C120.438 18.1407 120.68 19.25 120.68 20.55V29H117.04V21.044C117.04 19.9 116.754 19.0247 116.182 18.418C115.61 17.794 114.83 17.482 113.842 17.482C112.837 17.482 112.04 17.794 111.45 18.418C110.878 19.0247 110.592 19.9 110.592 21.044V29H106.952V9.76H110.592V16.39C111.06 15.766 111.684 15.2807 112.464 14.934C113.244 14.57 114.111 14.388 115.064 14.388ZM123.206 21.746C123.206 20.29 123.492 18.9987 124.064 17.872C124.653 16.7453 125.442 15.8787 126.43 15.272C127.435 14.6653 128.553 14.362 129.784 14.362C130.858 14.362 131.794 14.5787 132.592 15.012C133.406 15.4453 134.056 15.9913 134.542 16.65V14.596H138.208V29H134.542V26.894C134.074 27.57 133.424 28.1333 132.592 28.584C131.777 29.0173 130.832 29.234 129.758 29.234C128.544 29.234 127.435 28.922 126.43 28.298C125.442 27.674 124.653 26.7987 124.064 25.672C123.492 24.528 123.206 23.2193 123.206 21.746ZM134.542 21.798C134.542 20.914 134.368 20.16 134.022 19.536C133.675 18.8947 133.207 18.4093 132.618 18.08C132.028 17.7333 131.396 17.56 130.72 17.56C130.044 17.56 129.42 17.7247 128.848 18.054C128.276 18.3833 127.808 18.8687 127.444 19.51C127.097 20.134 126.924 20.8793 126.924 21.746C126.924 22.6127 127.097 23.3753 127.444 24.034C127.808 24.6753 128.276 25.1693 128.848 25.516C129.437 25.8627 130.061 26.036 130.72 26.036C131.396 26.036 132.028 25.8713 132.618 25.542C133.207 25.1953 133.675 24.71 134.022 24.086C134.368 23.4447 134.542 22.682 134.542 21.798Z" fill="#8C3FDB"/>
</svg>
