<svg width="100" height="100" viewBox="0 0 100 100" fill="none" xmlns="http://www.w3.org/2000/svg">
<circle cx="4.37956" cy="4.37956" r="4.37956" fill="#CC9AFF"/>
<circle cx="4.37956" cy="22.6277" r="4.37956" fill="#CC9AFF"/>
<circle cx="4.37956" cy="40.8759" r="4.37956" fill="#CC9AFF"/>
<circle cx="4.37956" cy="59.1241" r="4.37956" fill="#CC9AFF"/>
<circle cx="4.37956" cy="77.3723" r="4.37956" fill="#CC9AFF"/>
<circle cx="4.37956" cy="95.6204" r="4.37956" fill="#CC9AFF"/>
<circle cx="22.6277" cy="4.37956" r="4.37956" fill="#CC9AFF"/>
<circle cx="22.6277" cy="22.6277" r="4.37956" fill="#CC9AFF"/>
<circle cx="22.6277" cy="40.8759" r="4.37956" fill="#CC9AFF"/>
<circle cx="22.6277" cy="59.1241" r="4.37956" fill="#CC9AFF"/>
<circle cx="22.6277" cy="77.3723" r="4.37956" fill="#CC9AFF"/>
<circle cx="22.6277" cy="95.6204" r="4.37956" fill="#CC9AFF"/>
<circle cx="40.8759" cy="4.37956" r="4.37956" fill="#CC9AFF"/>
<circle cx="40.8759" cy="22.6277" r="4.37956" fill="#CC9AFF"/>
<circle cx="40.8759" cy="40.8759" r="4.37956" fill="#CC9AFF"/>
<circle cx="40.8759" cy="59.1241" r="4.37956" fill="#CC9AFF"/>
<circle cx="40.8759" cy="77.3723" r="4.37956" fill="#CC9AFF"/>
<circle cx="40.8759" cy="95.6204" r="4.37956" fill="#CC9AFF"/>
<circle cx="59.1241" cy="4.37956" r="4.37956" fill="#CC9AFF"/>
<circle cx="59.1241" cy="22.6277" r="4.37956" fill="#CC9AFF"/>
<circle cx="59.1241" cy="40.8759" r="4.37956" fill="#CC9AFF"/>
<circle cx="59.1241" cy="59.1241" r="4.37956" fill="#CC9AFF"/>
<circle cx="59.1241" cy="77.3723" r="4.37956" fill="#CC9AFF"/>
<circle cx="59.1241" cy="95.6204" r="4.37956" fill="#CC9AFF"/>
<circle cx="77.3722" cy="4.37956" r="4.37956" fill="#CC9AFF"/>
<circle cx="95.6204" cy="4.37956" r="4.37956" fill="#CC9AFF"/>
<circle cx="77.3722" cy="22.6277" r="4.37956" fill="#CC9AFF"/>
<circle cx="95.6204" cy="22.6277" r="4.37956" fill="#CC9AFF"/>
<circle cx="77.3722" cy="40.8759" r="4.37956" fill="#CC9AFF"/>
<circle cx="95.6204" cy="40.8759" r="4.37956" fill="#CC9AFF"/>
<circle cx="77.3722" cy="59.1241" r="4.37956" fill="#CC9AFF"/>
<circle cx="95.6204" cy="59.1241" r="4.37956" fill="#CC9AFF"/>
<circle cx="77.3722" cy="77.3723" r="4.37956" fill="#CC9AFF"/>
<circle cx="77.3722" cy="95.6204" r="4.37956" fill="#CC9AFF"/>
<circle cx="95.6204" cy="77.3723" r="4.37956" fill="#CC9AFF"/>
<circle cx="95.6204" cy="95.6204" r="4.37956" fill="#CC9AFF"/>
</svg>
